<svg width="18" height="19" viewBox="0 0 18 19" fill="none" xmlns="http://www.w3.org/2000/svg">
<rect y="0.755371" width="17.4451" height="17.4451" rx="8.72253" fill="#2260FF"/>
<path d="M10.5372 10.8807V14.9161L8.80777 13.571L7.07831 14.9161V10.8807" stroke="white" stroke-linecap="round" stroke-linejoin="round"/>
<path d="M8.80769 4.07825L9.66037 5.2097L10.9894 4.71885L11.095 6.13168L12.4784 6.43729L11.8034 7.68293L12.802 8.68796L11.5607 9.37094L11.8575 10.7563L10.444 10.6598L9.9446 11.9856L8.80769 11.1402L7.67078 11.9856L7.17141 10.6598L5.75793 10.7563L6.05464 9.37094L4.81335 8.68796L5.81194 7.68293L5.13695 6.43729L6.52037 6.13168L6.62598 4.71885L7.95501 5.2097L8.80769 4.07825Z" stroke="white" stroke-linecap="round" stroke-linejoin="round"/>
</svg>
